<svg xmlns="http://www.w3.org/2000/svg" version="1.1" xmlns:xlink="http://www.w3.org/1999/xlink" width="512" height="512" x="0" y="0" viewBox="0 0 512 512" style="enable-background:new 0 0 512 512" xml:space="preserve" class=""><g><path d="M469.333 21.333H42.667C19.135 21.333 0 40.469 0 64v298.667c0 23.531 19.135 42.667 42.667 42.667h149.362c-.46 17.052-3.728 44.306-15.893 57.104-4.469 4.708-9.604 6.896-16.135 6.896a10.66 10.66 0 0 0-10.667 10.667 10.66 10.66 0 0 0 10.667 10.667h192a10.66 10.66 0 0 0 10.667-10.667 10.66 10.66 0 0 0-10.667-10.667c-6.531 0-11.667-2.188-16.135-6.896-12.165-12.798-15.434-40.052-15.893-57.104h149.362c23.531 0 42.667-19.135 42.667-42.667V64c-.002-23.531-19.137-42.667-42.669-42.667z" style="" fill="#303c42" data-original="#303c42"></path><path d="M469.333 384H42.667c-11.76 0-21.333-9.573-21.333-21.333V320h469.333v42.667c0 11.76-9.573 21.333-21.334 21.333zM314.271 469.333H197.729c12.882-19.749 15.374-48.188 15.695-64h85.151c.322 15.813 2.814 44.252 15.696 64z" style="" fill="#f2f2f2" data-original="#f2f2f2"></path><circle cx="256" cy="352" r="21.333" style="" fill="#303c42" data-original="#303c42"></circle><linearGradient id="a" x1="-35.701" x2="-31.837" y1="628.482" y2="624.619" gradientTransform="matrix(21.3333 0 0 -21.3333 996.333 13791.667)" gradientUnits="userSpaceOnUse"><stop offset="0" style="stop-color:#000000;stop-opacity:0.1" stop-color="#000000;stop-opacity:0.1"></stop><stop offset="1" style="stop-color:#000000;stop-opacity:0" stop-color="#000000;stop-opacity:0"></stop></linearGradient><path d="M314.271 469.333c-12.882-19.749-15.374-48.188-15.695-64h-85.151l64 64h36.846z" style="fill:url(#a);" fill=""></path><path d="M448 170.604c-47.083 0-85.396 38.313-85.396 85.396 0 15.296 4.354 29.79 11.882 42.667h-34.992c-.577-1.434-1.243-2.819-1.754-4.292a10.726 10.726 0 0 0-7.531-6.885l-31.479-7.865v-47.25l31.479-7.865a10.726 10.726 0 0 0 7.531-6.885c1.49-4.313 3.135-8.479 5.104-12.531a10.741 10.741 0 0 0-.458-10.198l-16.646-27.74 33.417-33.417 27.74 16.646c3.135 1.865 6.958 2.042 10.198.458 4.052-1.969 8.219-3.615 12.531-5.104a10.726 10.726 0 0 0 6.885-7.531l7.865-31.479h47.25l7.865 31.479a10.726 10.726 0 0 0 6.885 7.531c1.473.51 2.858 1.177 4.292 1.754v34.992c-12.878-7.527-27.372-11.881-42.668-11.881z" style="" fill="#1e88e5" data-original="#1e88e5"></path><path d="M384.063 256c0 15.964 6.068 30.872 16.771 42.667h89.833v-89.833c-11.794-10.703-26.703-16.771-42.667-16.771-35.26 0-63.937 28.677-63.937 63.937zm85.27-213.333H42.667c-11.76 0-21.333 9.573-21.333 21.333v234.667h265.105l-1.043-.26a10.74 10.74 0 0 1-8.125-10.406v-64c0-4.917 3.354-9.208 8.125-10.406l34.094-8.521a130.107 130.107 0 0 1 1.615-3.958l-18.063-30.104a10.73 10.73 0 0 1 1.615-13.104l45.25-45.26a10.724 10.724 0 0 1 13.104-1.615l30.104 18.063a167.754 167.754 0 0 1 3.958-1.604l8.521-34.094A10.74 10.74 0 0 1 416 85.273h64c4.917 0 9.208 3.354 10.406 8.125l.26 1.043V64c.001-11.76-9.572-21.333-21.333-21.333z" style="" fill="#5c6671" data-original="#5c6671"></path><linearGradient id="b" x1="-45.807" x2="-23.44" y1="643.482" y2="633.049" gradientTransform="matrix(21.3333 0 0 -21.3333 996.333 13791.667)" gradientUnits="userSpaceOnUse"><stop offset="0" style="stop-color:#FFFFFF;stop-opacity:0.2" stop-color="#ffffff;stop-opacity:0.2"></stop><stop offset="1" style="stop-color:#FFFFFF;stop-opacity:0" stop-color="#ffffff;stop-opacity:0"></stop></linearGradient><path d="M384.063 256c0 15.964 6.068 30.872 16.771 42.667h89.833v-89.833c-11.794-10.703-26.703-16.771-42.667-16.771-35.26 0-63.937 28.677-63.937 63.937zm85.27-213.333H42.667c-11.76 0-21.333 9.573-21.333 21.333v234.667h265.105l-1.043-.26a10.74 10.74 0 0 1-8.125-10.406v-64c0-4.917 3.354-9.208 8.125-10.406l34.094-8.521a130.107 130.107 0 0 1 1.615-3.958l-18.063-30.104a10.73 10.73 0 0 1 1.615-13.104l45.25-45.26a10.724 10.724 0 0 1 13.104-1.615l30.104 18.063a167.754 167.754 0 0 1 3.958-1.604l8.521-34.094A10.74 10.74 0 0 1 416 85.273h64c4.917 0 9.208 3.354 10.406 8.125l.26 1.043V64c.001-11.76-9.572-21.333-21.333-21.333z" style="fill:url(#b);" fill=""></path><linearGradient id="c" x1="-43.056" x2="-26.35" y1="646.545" y2="629.838" gradientTransform="matrix(21.3333 0 0 -21.3333 996.333 13791.667)" gradientUnits="userSpaceOnUse"><stop offset="0" style="stop-color:#FFFFFF;stop-opacity:0.2" stop-color="#ffffff;stop-opacity:0.2"></stop><stop offset="1" style="stop-color:#FFFFFF;stop-opacity:0" stop-color="#ffffff;stop-opacity:0"></stop></linearGradient><path d="M384.063 256c0 15.964 6.068 30.872 16.771 42.667h89.833v-89.833c-11.794-10.703-26.703-16.771-42.667-16.771-35.26 0-63.937 28.677-63.937 63.937zm85.27-213.333H42.667c-11.76 0-21.333 9.573-21.333 21.333v234.667h265.105l-1.043-.26a10.74 10.74 0 0 1-8.125-10.406v-64c0-4.917 3.354-9.208 8.125-10.406l34.094-8.521a130.107 130.107 0 0 1 1.615-3.958l-18.063-30.104a10.73 10.73 0 0 1 1.615-13.104l45.25-45.26a10.724 10.724 0 0 1 13.104-1.615l30.104 18.063a167.754 167.754 0 0 1 3.958-1.604l8.521-34.094A10.74 10.74 0 0 1 416 85.273h64c4.917 0 9.208 3.354 10.406 8.125l.26 1.043V64c.001-11.76-9.572-21.333-21.333-21.333z" style="fill:url(#c);" fill=""></path><linearGradient id="d" x1="-27.822" x2="-23.703" y1="636.603" y2="632.484" gradientTransform="matrix(21.3333 0 0 -21.3333 996.333 13791.667)" gradientUnits="userSpaceOnUse"><stop offset="0" style="stop-color:#FFFFFF;stop-opacity:0.2" stop-color="#ffffff;stop-opacity:0.2"></stop><stop offset="1" style="stop-color:#FFFFFF;stop-opacity:0" stop-color="#ffffff;stop-opacity:0"></stop></linearGradient><path d="M384.063 256c0 15.964 6.068 30.872 16.771 42.667h89.833v-89.833c-11.794-10.703-26.703-16.771-42.667-16.771-35.26 0-63.937 28.677-63.937 63.937z" style="fill:url(#d);" fill=""></path><path d="M394.729 287.938c0-35.26 28.677-63.938 63.938-63.938 11.484 0 22.374 3.243 32 8.991v-24.158c-11.794-10.703-26.703-16.771-42.667-16.771-35.26 0-63.938 28.677-63.938 63.938 0 12.712 3.984 24.678 10.958 35.013-.051-1.035-.291-2.03-.291-3.075z" style="opacity:0.1;enable-background:new ;" fill="#000000" opacity="1" data-original="#000000"></path><linearGradient id="e" x1="-47.656" x2="-22.241" y1="641.885" y2="630.033" gradientTransform="matrix(21.3333 0 0 -21.3333 996.333 13791.667)" gradientUnits="userSpaceOnUse"><stop offset="0" style="stop-color:#FFFFFF;stop-opacity:0.2" stop-color="#ffffff;stop-opacity:0.2"></stop><stop offset="1" style="stop-color:#FFFFFF;stop-opacity:0" stop-color="#ffffff;stop-opacity:0"></stop></linearGradient><path d="M469.333 21.333H42.667C19.135 21.333 0 40.469 0 64v298.667c0 23.531 19.135 42.667 42.667 42.667h149.362c-.46 17.052-3.728 44.306-15.893 57.104-4.469 4.708-9.604 6.896-16.135 6.896a10.66 10.66 0 0 0-10.667 10.667 10.66 10.66 0 0 0 10.667 10.667h192a10.66 10.66 0 0 0 10.667-10.667 10.66 10.66 0 0 0-10.667-10.667c-6.531 0-11.667-2.188-16.135-6.896-12.165-12.798-15.434-40.052-15.893-57.104h149.362c23.531 0 42.667-19.135 42.667-42.667V64c-.002-23.531-19.137-42.667-42.669-42.667z" style="fill:url(#e);" fill=""></path></g></svg>
