<?xml version="1.0" encoding="UTF-8"?>
<svg version="1.1" xmlns="http://www.w3.org/2000/svg" width="512" height="512">
<path d="M0 0 C168.96 0 337.92 0 512 0 C512 168.96 512 337.92 512 512 C343.04 512 174.08 512 0 512 C0 343.04 0 174.08 0 0 Z " fill="#7C39ED" transform="translate(0,0)"/>
<path d="M0 0 C0.33 0 0.66 0 1 0 C1 13.53 1 27.06 1 41 C-12.53 41 -26.06 41 -40 41 C-37.07033128 39.53516564 -34.36106707 38.36928066 -31.3125 37.25 C-17.94460231 31.91069285 -9.63313094 23.25779862 -3.4453125 10.46484375 C-1.99387093 6.9853068 -0.95513734 3.63972238 0 0 Z " fill="#000000" transform="translate(511,471)"/>
<path d="M0 0 C1.61857992 3.23715984 2.94284144 6.38624531 4.25 9.75 C6.52036099 15.21347105 9.11171057 19.561754 13 24 C13.48855469 24.59296875 13.97710937 25.1859375 14.48046875 25.796875 C21.25647743 33.3592353 31.06673192 38.24707034 41 40 C41 40.33 41 40.66 41 41 C27.47 41 13.94 41 0 41 C0 27.47 0 13.94 0 0 Z " fill="#000000" transform="translate(0,471)"/>
<path d="M0 0 C13.53 0 27.06 0 41 0 C41 13.53 41 27.06 41 41 C39.38142008 37.76284016 38.05715856 34.61375469 36.75 31.25 C34.47963901 25.78652895 31.88828943 21.438246 28 17 C27.51144531 16.40703125 27.02289063 15.8140625 26.51953125 15.203125 C19.74352257 7.6407647 9.93326808 2.75292966 0 1 C0 0.67 0 0.34 0 0 Z " fill="#000000" transform="translate(471,0)"/>
<path d="M0 0 C13.53 0 27.06 0 41 0 C38.07033128 1.46483436 35.36106707 2.63071934 32.3125 3.75 C18.94460231 9.08930715 10.63313094 17.74220138 4.4453125 30.53515625 C2.99387093 34.0146932 1.95513734 37.36027762 1 41 C0.67 41 0.34 41 0 41 C0 27.47 0 13.94 0 0 Z " fill="#000000" transform="translate(0,0)"/>
</svg>
